<svg id="Layer_1___1809523088" data-name="Layer 1" xmlns="http://www.w3.org/2000/svg" viewBox="0 0 175.12 57" width="100%"><title>Icon+INS (1)</title><g id="Page-1___1809523088"><g id="logo2___1809523088"><g id="Group-87___1809523088"><path id="INS___1809523088" d="M72,12.79h3.87v32H72Zm22.23,0h5.5l23.8,26.31V12.79h3.87v32h-3.87L97.93,16.22V44.78h-3.7ZM145,35.63q.7.92,1.69,2.07a10.8,10.8,0,0,0,2.64,2.13,16.12,16.12,0,0,0,4.11,1.65,23.84,23.84,0,0,0,6.07.66,26.19,26.19,0,0,0,3.89-.31,15.93,15.93,0,0,0,3.78-1,7.93,7.93,0,0,0,2.86-2,4.4,4.4,0,0,0,1.12-3.08A3.63,3.63,0,0,0,170,32.9a8.07,8.07,0,0,0-3.17-1.63,26.07,26.07,0,0,0-4.49-.84l-5.1-.53q-2.6-.26-5.1-.68a18.53,18.53,0,0,1-4.49-1.3,8.12,8.12,0,0,1-3.17-2.4,6.2,6.2,0,0,1-1.19-3.94,8.2,8.2,0,0,1,1.12-4.38,8.58,8.58,0,0,1,3.12-3,15.76,15.76,0,0,1,4.75-1.69,30.66,30.66,0,0,1,6-.55,25.29,25.29,0,0,1,5.72.59,22.16,22.16,0,0,1,4.53,1.54,15.75,15.75,0,0,1,3.37,2.11,13.47,13.47,0,0,1,2.22,2.31l-2.82,2.29q-.48-.57-1.39-1.52a11.33,11.33,0,0,0-2.42-1.85,16.43,16.43,0,0,0-3.78-1.56,20,20,0,0,0-5.52-.66,27.29,27.29,0,0,0-4.42.33,13.17,13.17,0,0,0-3.45,1A5.83,5.83,0,0,0,148,18.38a4.24,4.24,0,0,0-.81,2.6,3.5,3.5,0,0,0,1.19,2.82,8.21,8.21,0,0,0,3.17,1.56,25,25,0,0,0,4.49.77q2.51.22,5.1.48t5.1.73a17.33,17.33,0,0,1,4.49,1.43,8.24,8.24,0,0,1,3.17,2.64,7.36,7.36,0,0,1,1.19,4.36,7.72,7.72,0,0,1-1,3.81,9.21,9.21,0,0,1-3,3.12,15.86,15.86,0,0,1-5,2.11,29,29,0,0,1-7.11.77,26.71,26.71,0,0,1-6.69-.73A20.47,20.47,0,0,1,147.62,43a15.21,15.21,0,0,1-3.3-2.4Q143,39.32,142,38.18Z" style="fill:#fc4c04"></path><g id="Group-61___1809523088"><circle id="Oval-5-Copy-24___1809523088" cx="21.5" cy="15.5" r="3.5" style="fill:#b2a3f6"></circle><circle id="Oval-5-Copy-25___1809523088" cx="31.5" cy="11.5" r="3.5" style="fill:#b2a3f6"></circle><circle id="Oval-5-Copy-44___1809523088" cx="35.5" cy="35.5" r="3.5" style="fill:#b2a3f6"></circle><circle id="Oval-5-Copy-29___1809523088" cx="2" cy="32" r="2" style="fill:#b2a3f6"></circle><circle id="Oval-5-Copy-34___1809523088" cx="7.5" cy="45.5" r="1.5" style="fill:#b2a3f6"></circle><circle id="Oval-5-Copy-36___1809523088" cx="23.5" cy="55.5" r="1.5" style="fill:#b2a3f6"></circle><circle id="Oval-5-Copy-50___1809523088" cx="49.5" cy="46.5" r="1.5" style="fill:#b2a3f6"></circle><circle id="Oval-5-Copy-38___1809523088" cx="33.5" cy="43.5" r="1.5" style="fill:#b2a3f6"></circle><circle id="Oval-5-Copy-48___1809523088" cx="42.5" cy="36.5" r="1.5" style="fill:#b2a3f6"></circle><circle id="Oval-5-Copy-37___1809523088" cx="32" cy="55" r="2" style="fill:#b2a3f6"></circle><circle id="Oval-5-Copy-47___1809523088" cx="41" cy="30" r="2" style="fill:#b2a3f6"></circle><circle id="Oval-5-Copy-49___1809523088" cx="44" cy="50" r="2" style="fill:#b2a3f6"></circle><circle id="Oval-5-Copy-32___1809523088" cx="4.5" cy="39.5" r="2.5" style="fill:#b2a3f6"></circle><circle id="Oval-5-Copy-30___1809523088" cx="28.5" cy="48.5" r="3.5" style="fill:#b2a3f6"></circle><circle id="Oval-5-Copy-39___1809523088" cx="9.5" cy="31.5" r="3.5" style="fill:#b2a3f6"></circle><circle id="Oval-5-Copy-31___1809523088" cx="28.5" cy="40.5" r="2.5" style="fill:#b2a3f6"></circle><circle id="Oval-5-Copy-26___1809523088" cx="16.5" cy="19.5" r="1.5" style="fill:#b2a3f6"></circle><circle id="Oval-5-Copy-27___1809523088" cx="26" cy="24" r="3" style="fill:#b2a3f6"></circle><circle id="Oval-5-Copy-40___1809523088" cx="33" cy="28" r="2" style="fill:#b2a3f6"></circle><circle id="Oval-5-Copy-43___1809523088" cx="36.5" cy="3.5" r="1.5" style="fill:#b2a3f6"></circle><circle id="Oval-5-Copy-42___1809523088" cx="29.5" cy="2.5" r="2.5" style="fill:#b2a3f6"></circle><circle id="Oval-5-Copy-41___1809523088" cx="31" cy="19" r="2" style="fill:#b2a3f6"></circle><circle id="Oval-5-Copy-33___1809523088" cx="12" cy="40" r="3" style="fill:#b2a3f6"></circle><circle id="Oval-5-Copy-46___1809523088" cx="41" cy="43" r="3" style="fill:#b2a3f6"></circle><circle id="Oval-5-Copy-45___1809523088" cx="37" cy="50" r="3" style="fill:#b2a3f6"></circle><circle id="Oval-5-Copy-35___1809523088" cx="13.5" cy="49.5" r="3.5" style="fill:#b2a3f6"></circle><circle id="Oval-5-Copy-28___1809523088" cx="3" cy="24" r="3" style="fill:#b2a3f6"></circle><g id="Group-62___1809523088"><circle id="Oval-5___1809523088" cx="18" cy="28" r="4" style="fill:#fc4c04"></circle><circle id="Oval-5-Copy-5___1809523088" cx="39" cy="22" r="4" style="fill:#fc4c04"></circle><circle id="Oval-5-Copy-6___1809523088" cx="50" cy="40" r="3" style="fill:#fc4c04"></circle><circle id="Oval-5-Copy-11___1809523088" cx="53" cy="28" r="3" style="fill:#fc4c04"></circle><circle id="Oval-5-Copy-7___1809523088" cx="41.5" cy="14.5" r="2.5" style="fill:#fc4c04"></circle><circle id="Oval-5-Copy-12___1809523088" cx="42" cy="7" r="2" style="fill:#fc4c04"></circle><circle id="Oval-5-Copy-13___1809523088" cx="46.5" cy="9.5" r="1.5" style="fill:#fc4c04"></circle><circle id="Oval-5-Copy-14___1809523088" cx="54.5" cy="21.5" r="1.5" style="fill:#fc4c04"></circle><circle id="Oval-5-Copy-19___1809523088" cx="11.5" cy="8.5" r="1.5" style="fill:#fc4c04"></circle><circle id="Oval-5-Copy-22___1809523088" cx="9.5" cy="21.5" r="1.5" style="fill:#fc4c04"></circle><circle id="Oval-5-Copy-23___1809523088" cx="13.5" cy="23.5" r="1.5" style="fill:#fc4c04"></circle><circle id="Oval-5-Copy-20___1809523088" cx="18.5" cy="4.5" r="1.5" style="fill:#fc4c04"></circle><circle id="Oval-5-Copy-15___1809523088" cx="54.5" cy="34.5" r="1.5" style="fill:#fc4c04"></circle><circle id="Oval-5-Copy-8___1809523088" cx="49.5" cy="16.5" r="3.5" style="fill:#fc4c04"></circle><circle id="Oval-5-Copy-9___1809523088" cx="46.5" cy="25.5" r="2.5" style="fill:#fc4c04"></circle><circle id="Oval-5-Copy-16___1809523088" cx="12.5" cy="14.5" r="2.5" style="fill:#fc4c04"></circle><circle id="Oval-5-Copy-17___1809523088" cx="23.5" cy="7.5" r="2.5" style="fill:#fc4c04"></circle><circle id="Oval-5-Copy-18___1809523088" cx="17" cy="9" r="2" style="fill:#fc4c04"></circle><circle id="Oval-5-Copy-21___1809523088" cx="6" cy="17" r="2" style="fill:#fc4c04"></circle><circle id="Oval-5-Copy-10___1809523088" cx="48" cy="33" r="2" style="fill:#fc4c04"></circle><circle id="Oval-5-Copy___1809523088" cx="26.5" cy="32.5" r="3.5" style="fill:#fc4c04"></circle><circle id="Oval-5-Copy-2___1809523088" cx="20" cy="36" r="2" style="fill:#fc4c04"></circle><circle id="Oval-5-Copy-3___1809523088" cx="21" cy="43" r="3" style="fill:#fc4c04"></circle><circle id="Oval-5-Copy-4___1809523088" cx="21" cy="50" r="2" style="fill:#fc4c04"></circle></g></g></g></g></g></svg>