<?xml version="1.0" encoding="iso-8859-1"?>
<!-- Generator: Adobe Illustrator 19.0.0, SVG Export Plug-In . SVG Version: 6.00 Build 0)  -->
<svg version="1.1" id="Layer_1" xmlns="http://www.w3.org/2000/svg" xmlns:xlink="http://www.w3.org/1999/xlink" x="0px" y="0px"
	 viewBox="0 0 512 512" style="enable-background:new 0 0 512 512;" xml:space="preserve">
<g>
	<g>
		<path d="M349.997,307.332c6.647-6.454,12.318-13.873,16.803-22.026h4.878c23.522,0,42.659-19.136,42.659-42.659V133.605
			c0-16.623-3.018-32.845-8.971-48.213c-9.626-24.869-26.317-46.11-48.266-61.427C334.629,8.288,308.218,0,280.719,0h-49.451
			c-27.499,0-53.912,8.29-76.385,23.972c-21.823,15.231-38.444,36.313-48.09,60.993c-0.065,0.146-0.127,0.294-0.186,0.444
			c-5.943,15.379-8.957,31.593-8.957,48.196v91.549c0,13.239,10.77,24.009,24.009,24.009h5.793c2.255,0,4.429-0.335,6.501-0.918
			c1.924,22.564,11.919,43.492,28.018,59.096c-42.434,17.897-70.868,59.737-70.868,106.906v88.823c0,4.931,3.998,8.929,8.929,8.929
			h311.934c4.933,0,8.929-3.998,8.929-8.929v-88.823C420.896,367.069,392.446,325.223,349.997,307.332z M374.393,267.292
			c1.879-6.196,3.102-12.556,3.65-19.043c2.068,0.582,4.238,0.916,6.49,0.916h5.793c1.866,0,3.673-0.235,5.417-0.639
			C393.304,258.512,384.823,266.15,374.393,267.292z M396.477,175.189v49.965c0,3.392-2.759,6.151-6.151,6.151h-5.793
			c-3.392,0-6.151-2.76-6.151-6.151v-52.856c0-3.392,2.759-6.151,6.151-6.151h5.793c3.392,0,6.151,2.759,6.151,6.151V175.189z
			 M133.605,225.154c0,3.392-2.76,6.151-6.152,6.151h-5.793c-3.392,0-6.151-2.76-6.151-6.151v-49.965v-2.891
			c0-3.392,2.759-6.151,6.151-6.151h5.793c3.392,0,6.152,2.759,6.152,6.151V225.154z M133.605,137.451v11.667
			c-1.967-0.523-4.022-0.829-6.152-0.829h-5.793c-2.129,0-4.184,0.306-6.151,0.829v-15.512c0-14.244,2.556-28.151,7.598-41.346
			c0.06-0.135,0.117-0.271,0.17-0.41c8.333-21.544,22.796-39.951,41.825-53.231c19.461-13.582,42.34-20.76,66.164-20.76h49.451
			c23.825,0,46.703,7.177,66.16,20.753c19.027,13.277,33.492,31.683,41.832,53.229c5.154,13.305,7.766,27.356,7.766,41.765v15.512
			c-1.967-0.523-4.022-0.829-6.151-0.829h-5.793c-2.129,0-4.184,0.306-6.151,0.829v-11.667c0-57.212-46.546-103.758-103.758-103.758
			h-37.261C180.151,33.692,133.605,80.238,133.605,137.451z M151.464,137.452c0-47.365,38.535-85.9,85.9-85.9h37.261
			c47.365,0,85.9,38.535,85.9,85.9V165.3l-39.979-55.961c-1.906-2.668-5.121-4.079-8.377-3.669
			c-3.254,0.408-6.024,2.568-7.211,5.625c-7.984,20.542-21.819,37.977-40.008,50.423c-18.189,12.443-39.451,19.021-61.49,19.021
			h-51.994V137.452z M151.464,240.235v-15.08v-26.56h51.994c25.652,0,50.402-7.656,71.575-22.139
			c16.767-11.47,30.355-26.586,39.9-44.253l45.592,63.819v29.134v15.08c0,9.409-1.724,18.535-5.081,27.213h-64.771
			c-4.933,0-8.929,3.998-8.929,8.929s3.997,8.929,8.929,8.929h54.959c-5.153,6.948-11.476,12.996-18.724,17.84
			c-5.467,3.651-11.409,6.584-17.669,8.716c-0.075,0.024-0.151,0.048-0.225,0.073l-41.473,13.962
			c-7.415,2.498-15.655,2.498-23.091,0l-41.469-13.962c-6.353-2.139-12.374-5.097-17.898-8.79
			C164.031,289.086,151.464,265.568,151.464,240.235z M312.999,379.229l-48.07-25.874v-8.457c2.817-0.47,5.593-1.161,8.309-2.076
			l31.612-10.643L312.999,379.229z M247.069,344.9v8.456l-48.078,25.874l8.156-47.045l31.607,10.641
			C241.474,343.74,244.252,344.43,247.069,344.9z M247.069,494.142H108.961v-79.893c0.001-43.449,28.498-81.567,69.756-94.004
			c3.642,2.203,7.438,4.154,11.361,5.845l-11.819,68.172c-0.583,3.367,0.805,6.772,3.578,8.77c1.55,1.118,3.381,1.686,5.222,1.686
			c1.449,0,2.903-0.352,4.229-1.066l22.978-12.364l32.803,32.794V494.142z M230.688,382.451L256,368.831l25.304,13.619
			l-25.305,25.305L230.688,382.451z M403.037,494.141H264.929V424.08l32.794-32.795l22.976,12.365
			c1.325,0.713,2.78,1.066,4.229,1.066c1.839,0,3.671-0.568,5.222-1.685c2.772-1.998,4.161-5.402,3.578-8.769l-11.808-68.177
			c3.916-1.689,7.708-3.641,11.35-5.842c41.266,12.436,69.768,50.554,69.768,94.004V494.141z"/>
	</g>
</g>
<g>
	<g>
		<path d="M362.291,425.791h-45.24c-4.933,0-8.929,3.998-8.929,8.929s3.997,8.929,8.929,8.929h45.24
			c4.933,0,8.929-3.998,8.929-8.929S367.223,425.791,362.291,425.791z"/>
	</g>
</g>
<g>
</g>
<g>
</g>
<g>
</g>
<g>
</g>
<g>
</g>
<g>
</g>
<g>
</g>
<g>
</g>
<g>
</g>
<g>
</g>
<g>
</g>
<g>
</g>
<g>
</g>
<g>
</g>
<g>
</g>
</svg>
