<?xml version="1.0" encoding="iso-8859-1"?>
<!-- Generator: Adobe Illustrator 19.0.0, SVG Export Plug-In . SVG Version: 6.00 Build 0)  -->
<svg version="1.1" id="Capa_1" xmlns="http://www.w3.org/2000/svg" xmlns:xlink="http://www.w3.org/1999/xlink" x="0px" y="0px"
	 viewBox="0 0 476.8 476.8" style="enable-background:new 0 0 476.8 476.8;" xml:space="preserve">
<g>
	<g>
		<path d="M310.4,189.6c-1.6-5.6-4.8-9.6-8-13.6s-7.2-7.2-12-9.6s-9.6-4-14.4-5.6c4-1.6,8-4,10.4-6.4c3.2-2.4,5.6-5.6,8-9.6
			c2.4-4,4-7.2,4.8-11.2s1.6-8,1.6-12.8c0-7.2-1.6-14.4-4-20c-2.4-5.6-6.4-11.2-10.4-15.2c-4.8-4-10.4-7.2-17.6-9.6
			c-0.8,0-0.8,0-1.6,0v-0.8v-28c0-4.8-3.2-8-8-8s-8,3.2-8,8v26.4c-3.2,0-6.4,0-10.4,0h-15.2V47.2c0-4.8-3.2-8-8-8c-4.8,0-8,3.2-8,8
			v25.6h-11.2c-2.4,0-4,0.8-6.4,2.4c-1.6,1.6-3.2,4-3.2,8v167.2c0,4,0.8,6.4,3.2,8c3.2,1.6,5.6,2.4,7.2,2.4h11.2v28c0,4.8,3.2,8,8,8
			c4.8,0,8-3.2,8-8v-28H248c1.6,0,2.4,0,4,0v28c0,4.8,3.2,8,8,8s8-3.2,8-8v-28c0-0.8,0-0.8,0-1.6c5.6-0.8,10.4-2.4,14.4-4.8
			c4.8-2.4,8.8-4.8,12.8-7.2c4-3.2,7.2-6.4,9.6-10.4c2.4-4,4.8-8.8,6.4-13.6c1.6-4.8,2.4-10.4,2.4-16
			C313.6,200.8,312.8,195.2,310.4,189.6z M214.4,93.6H240c8,0,13.6,0.8,17.6,1.6c4,1.6,8,3.2,10.4,5.6c2.4,2.4,4.8,5.6,5.6,9.6
			c1.6,4,1.6,8,1.6,12s-0.8,8-1.6,12c-1.6,4-3.2,7.2-5.6,10.4c-2.4,3.2-5.6,4.8-9.6,7.2c-4,1.6-8.8,2.4-16,2.4h-28V93.6z
			 M284.8,221.6c-1.6,4-4,7.2-7.2,9.6c-3.2,2.4-7.2,4.8-11.2,6.4c-4,1.6-9.6,2.4-15.2,2.4h-36v-66.4h29.6c8,0,14.4,0.8,19.2,2.4
			c5.6,1.6,9.6,4,12.8,7.2c3.2,3.2,6.4,6.4,8,10.4c1.6,4,2.4,8.8,2.4,14.4C287.2,213.6,286.4,217.6,284.8,221.6z"/>
	</g>
</g>
<g>
	<g>
		<path d="M356,283.2c29.6-30.4,48-71.2,48-116.8C404,74.4,328.8,0,237.6,0S71.2,75.2,71.2,166.4c0,45.6,18.4,87.2,48,116.8
			c-27.2,8-54.4,21.6-54.4,42.4c0,1.6,0,2.4,0,4v45.6c0,0.8,0,1.6,0,1.6v42.4c0,37.6,87.2,57.6,173.6,57.6s173.6-20,173.6-57.6
			v-93.6C411.2,304.8,384,291.2,356,283.2z M87.2,166.4c0-82.4,67.2-151.2,150.4-151.2S388,83.2,388,165.6s-67.2,151.2-150.4,151.2
			S87.2,248.8,87.2,166.4z M132.8,296c28.8,23.2,64.8,36.8,104.8,36.8s76-13.6,104.8-36.8c36,8.8,52.8,21.6,52.8,29.6
			c0,17.6-60,41.6-157.6,41.6S80,343.2,80,325.6C80,316.8,96.8,304.8,132.8,296z M395.2,419.2c0,17.6-60,41.6-157.6,41.6
			S80,436.8,80,419.2v-18.4c29.6,20.8,93.6,32,157.6,32s128-11.2,157.6-32V419.2z M395.2,375.2c0,17.6-60,41.6-157.6,41.6
			c-96,0-156-23.2-157.6-40.8v-24c29.6,20.8,93.6,31.2,157.6,31.2s128-11.2,157.6-32V375.2z"/>
	</g>
</g>
<g>
</g>
<g>
</g>
<g>
</g>
<g>
</g>
<g>
</g>
<g>
</g>
<g>
</g>
<g>
</g>
<g>
</g>
<g>
</g>
<g>
</g>
<g>
</g>
<g>
</g>
<g>
</g>
<g>
</g>
</svg>
