<?xml version="1.0" encoding="utf-8"?>
<!-- Generator: Adobe Illustrator 21.1.0, SVG Export Plug-In . SVG Version: 6.00 Build 0)  -->
<svg version="1.1" id="Capa_1" xmlns="http://www.w3.org/2000/svg" xmlns:xlink="http://www.w3.org/1999/xlink" x="0px" y="0px"
	 viewBox="0 0 60 60" style="enable-background:new 0 0 60 60;" xml:space="preserve">
<style type="text/css">
	.st0{fill:#FFBD4A;}
</style>
<g>
	<path class="st0" d="M8,16h15c0.6,0,1-0.4,1-1s-0.4-1-1-1H8c-0.6,0-1,0.4-1,1S7.4,16,8,16z"/>
	<path class="st0" d="M8,13h9c0.6,0,1-0.4,1-1s-0.4-1-1-1H8c-0.6,0-1,0.4-1,1S7.4,13,8,13z"/>
	<path class="st0" d="M24,18c0-0.6-0.4-1-1-1H8c-0.6,0-1,0.4-1,1s0.4,1,1,1h15C23.6,19,24,18.6,24,18z"/>
	<path class="st0" d="M60,4H31V1c0-0.6-0.4-1-1-1s-1,0.4-1,1v3H0v42h27.6L15.3,58.3c-0.4,0.4-0.4,1,0,1.4c0.2,0.2,0.5,0.3,0.7,0.3
		c0.3,0,0.5-0.1,0.7-0.3L29,47.4V57c0,0.6,0.4,1,1,1s1-0.4,1-1v-9.6l12.3,12.3c0.2,0.2,0.5,0.3,0.7,0.3s0.5-0.1,0.7-0.3
		c0.4-0.4,0.4-1,0-1.4L32.4,46H60V4z M58,44H2V6h56V44z"/>
	<path class="st0" d="M41,20h4.6l-12,12l-8.3-8.3c-0.4-0.4-1-0.4-1.4,0L11.3,36.3c-0.4,0.4-0.4,1,0,1.4c0.2,0.2,0.5,0.3,0.7,0.3
		s0.5-0.1,0.7-0.3l11.9-11.9l8.3,8.3c0.2,0.2,0.5,0.3,0.7,0.3s0.5-0.1,0.7-0.3L47,21.4V26c0,0.6,0.4,1,1,1s1-0.4,1-1v-7
		c0-0.1,0-0.3-0.1-0.4c-0.1-0.2-0.3-0.4-0.5-0.5C48.3,18,48.1,18,48,18h-7c-0.6,0-1,0.4-1,1S40.4,20,41,20z"/>
</g>
</svg>
