<?xml version="1.0" encoding="utf-8"?>
<!-- Generator: Adobe Illustrator 21.1.0, SVG Export Plug-In . SVG Version: 6.00 Build 0)  -->
<svg version="1.1" id="Layer_1" xmlns="http://www.w3.org/2000/svg" xmlns:xlink="http://www.w3.org/1999/xlink" x="0px" y="0px"
	 viewBox="0 0 512 512" style="enable-background:new 0 0 512 512;" xml:space="preserve">
<style type="text/css">
	.st0{fill:#FFBD4A;}
</style>
<g>
	<g>
		<path class="st0" d="M502.3,204.8c-1,0.2-24.1,5-43.6,10.9c-26.1,7.8-41.1,24.3-41.1,45.3v94.5h-66.2c-16.3,0-29.6,13.3-29.6,29.6
			V508h16.2V385.1c0-7.4,6-13.5,13.5-13.5h82.3V261c0-18.2,18.6-26.5,29.6-29.8c11.2-3.4,24-6.4,32.6-8.4v157c0,19.3-15.7,35-35,35
			h-89.5L359.6,508h16l9.9-76.9h75.3c28.2,0,51.2-23,51.2-51.2v-177L502.3,204.8z"/>
	</g>
</g>
<g>
	<g>
		<path class="st0" d="M465.1,78.6L465.1,78.6c-25.3,0-45.9,20.1-46.9,45.1l-22.6,51.9h22.6v26.9H463c27,0,49-22,49-49v-28
			C512,99.6,491,78.6,465.1,78.6z M495.8,153.5c0,18.1-14.7,32.9-32.9,32.9h-28.6v-26.9h-14.1l14.1-32.3v-1.7
			c0-16.9,13.8-30.7,30.7-30.7h0c16.9,0,30.7,13.8,30.7,30.7L495.8,153.5L495.8,153.5z"/>
	</g>
</g>
<g>
	<g>
		<path class="st0" d="M160.7,355.4H94.5V261c0-20.9-15-37.4-41.1-45.3c-19.5-5.9-42.7-10.7-43.6-10.9l-9.7-2v177
			C0,408.1,23,431,51.2,431h75.3l9.9,76.9h16l-11.7-93.1H51.2c-19.3,0-35-15.7-35-35v-157c8.5,1.9,21.3,5,32.6,8.4
			c11.1,3.3,29.6,11.6,29.6,29.8v110.7h82.3c7.4,0,13.5,6,13.5,13.5V508h16.2V385.1C190.3,368.7,177,355.4,160.7,355.4z"/>
	</g>
</g>
<g>
	<g>
		<path class="st0" d="M93.7,123.7c-0.9-25-21.6-45.1-46.9-45.1h0C21,78.6,0,99.6,0,125.4v28c0,27,22,49,49,49h44.7v-26.9h22.6
			L93.7,123.7z M77.6,159.4v26.9H49c-18.1,0-32.9-14.7-32.9-32.9v-28c0-16.9,13.8-30.7,30.7-30.7h0c16.9,0,30.7,13.8,30.7,30.7v1.7
			l14.1,32.3L77.6,159.4L77.6,159.4z"/>
	</g>
</g>
<g>
	<g>
		<path class="st0" d="M121.3,273.5V322h113.4V508h16.2V322H267V508h16.2V322h107.5v-48.5H121.3z M374.6,305.9H137.4v-16.2h237.1
			L374.6,305.9L374.6,305.9z"/>
	</g>
</g>
<g>
	<g>
		<path class="st0" d="M365.4,88.2v-41h-45.3V4H131.5v41L92.3,93h39.2v35h33.8v-16.2h-17.6v-35h-21.2l21.2-25.9V20.2H304v26.9H176.8
			v124h188.6v-35h39.2L365.4,88.2z M349.2,119.9v35H192.9V128h127.2V73.7H304v38.1h-111V63.3h156.3V94l21.2,25.9H349.2z"/>
	</g>
</g>
<g>
	<g>
		<g>
			<rect x="202.6" y="215.3" class="st0" width="16.2" height="16.2"/>
			<rect x="247.9" y="215.3" class="st0" width="16.2" height="16.2"/>
			<rect x="293.2" y="215.3" class="st0" width="16.2" height="16.2"/>
		</g>
	</g>
</g>
</svg>
