<?xml version="1.0" encoding="utf-8"?>
<!-- Generator: Adobe Illustrator 21.1.0, SVG Export Plug-In . SVG Version: 6.00 Build 0)  -->
<svg version="1.1" id="Capa_1" xmlns="http://www.w3.org/2000/svg" xmlns:xlink="http://www.w3.org/1999/xlink" x="0px" y="0px"
	 viewBox="0 0 35.3 35.3" style="enable-background:new 0 0 35.3 35.3;" xml:space="preserve">
<style type="text/css">
	.st0{fill:#FFBD4A;}
</style>
<g>
	<g>
		<g>
			<path class="st0" d="M4.1,18.1C4.1,18.1,4,18.1,4.1,18.1c-0.2,0-0.3-0.1-0.4-0.2l-3.6-5.3c-0.2-0.2-0.1-0.5,0.1-0.7
				c0.2-0.2,0.5-0.1,0.7,0.1l3.3,4.9l4.9-3.3c0.2-0.2,0.5-0.1,0.7,0.1c0.2,0.2,0.1,0.5-0.1,0.7L4.4,18C4.3,18.1,4.2,18.1,4.1,18.1z"
				/>
			<path class="st0" d="M19.4,33.5c-5.3,0-10.2-2.6-13.1-7c-0.2-0.2-0.1-0.5,0.1-0.7c0.2-0.2,0.5-0.1,0.7,0.1
				c2.8,4.1,7.4,6.5,12.3,6.5c8.2,0,14.8-6.7,14.8-14.8S27.6,2.8,19.4,2.8S4.6,9.5,4.6,17.6c0,0.3-0.2,0.5-0.5,0.5s-0.5-0.2-0.5-0.5
				c0-8.7,7.1-15.8,15.8-15.8s15.8,7.1,15.8,15.8S28.2,33.5,19.4,33.5z"/>
		</g>
	</g>
	<path class="st0" d="M24.2,23.9c-0.1,0-0.3-0.1-0.4-0.2L19,17.9c-0.1-0.1-0.1-0.2-0.1-0.3V8c0-0.3,0.2-0.5,0.5-0.5s0.5,0.2,0.5,0.5
		v9.4l4.7,5.6c0.2,0.2,0.1,0.5-0.1,0.7C24.4,23.9,24.3,23.9,24.2,23.9z"/>
</g>
</svg>
