<?xml version="1.0" encoding="utf-8"?>
<!-- Generator: Adobe Illustrator 21.1.0, SVG Export Plug-In . SVG Version: 6.00 Build 0)  -->
<svg version="1.1" id="Layer_1" xmlns="http://www.w3.org/2000/svg" xmlns:xlink="http://www.w3.org/1999/xlink" x="0px" y="0px"
	 viewBox="0 0 512 512" style="enable-background:new 0 0 512 512;" xml:space="preserve">
<style type="text/css">
	.st0{fill:#FFBD4A;}
</style>
<g>
	<g>
		<path class="st0" d="M350,307.3c6.6-6.5,12.3-13.9,16.8-22h4.9c23.5,0,42.7-19.1,42.7-42.7v-109c0-16.6-3-32.8-9-48.2
			C395.7,60.5,379,39.3,357.1,24C334.6,8.3,308.2,0,280.7,0h-49.5c-27.5,0-53.9,8.3-76.4,24c-21.8,15.2-38.4,36.3-48.1,61
			c-0.1,0.1-0.1,0.3-0.2,0.4c-5.9,15.4-9,31.6-9,48.2v91.5c0,13.2,10.8,24,24,24h5.8c2.3,0,4.4-0.3,6.5-0.9
			c1.9,22.6,11.9,43.5,28,59.1c-42.4,17.9-70.9,59.7-70.9,106.9v88.8c0,4.9,4,8.9,8.9,8.9H412c4.9,0,8.9-4,8.9-8.9v-88.8
			C420.9,367.1,392.4,325.2,350,307.3z M374.4,267.3c1.9-6.2,3.1-12.6,3.6-19c2.1,0.6,4.2,0.9,6.5,0.9h5.8c1.9,0,3.7-0.2,5.4-0.6
			C393.3,258.5,384.8,266.1,374.4,267.3z M396.5,175.2v50c0,3.4-2.8,6.2-6.2,6.2h-5.8c-3.4,0-6.2-2.8-6.2-6.2v-52.9
			c0-3.4,2.8-6.2,6.2-6.2h5.8c3.4,0,6.2,2.8,6.2,6.2V175.2z M133.6,225.2c0,3.4-2.8,6.2-6.2,6.2h-5.8c-3.4,0-6.2-2.8-6.2-6.2v-50
			v-2.9c0-3.4,2.8-6.2,6.2-6.2h5.8c3.4,0,6.2,2.8,6.2,6.2V225.2z M133.6,137.5v11.7c-2-0.5-4-0.8-6.2-0.8h-5.8
			c-2.1,0-4.2,0.3-6.2,0.8v-15.5c0-14.2,2.6-28.2,7.6-41.3c0.1-0.1,0.1-0.3,0.2-0.4c8.3-21.5,22.8-40,41.8-53.2
			c19.5-13.6,42.3-20.8,66.2-20.8h49.5c23.8,0,46.7,7.2,66.2,20.8c19,13.3,33.5,31.7,41.8,53.2c5.2,13.3,7.8,27.4,7.8,41.8v15.5
			c-2-0.5-4-0.8-6.2-0.8h-5.8c-2.1,0-4.2,0.3-6.2,0.8v-11.7c0-57.2-46.5-103.8-103.8-103.8h-37.3C180.2,33.7,133.6,80.2,133.6,137.5
			z M151.5,137.5c0-47.4,38.5-85.9,85.9-85.9h37.3c47.4,0,85.9,38.5,85.9,85.9v27.8l-40-56c-1.9-2.7-5.1-4.1-8.4-3.7
			c-3.3,0.4-6,2.6-7.2,5.6c-8,20.5-21.8,38-40,50.4c-18.2,12.4-39.5,19-61.5,19h-52L151.5,137.5L151.5,137.5z M151.5,240.2v-15.1
			v-26.6h52c25.7,0,50.4-7.7,71.6-22.1c16.8-11.5,30.4-26.6,39.9-44.3l45.6,63.8v29.1v15.1c0,9.4-1.7,18.5-5.1,27.2h-64.8
			c-4.9,0-8.9,4-8.9,8.9s4,8.9,8.9,8.9h55c-5.2,6.9-11.5,13-18.7,17.8c-5.5,3.7-11.4,6.6-17.7,8.7c-0.1,0-0.2,0-0.2,0.1l-41.5,14
			c-7.4,2.5-15.7,2.5-23.1,0l-41.5-14c-6.4-2.1-12.4-5.1-17.9-8.8C164,289.1,151.5,265.6,151.5,240.2z M313,379.2l-48.1-25.9v-8.5
			c2.8-0.5,5.6-1.2,8.3-2.1l31.6-10.6L313,379.2z M247.1,344.9v8.5L199,379.2l8.2-47l31.6,10.6C241.5,343.7,244.3,344.4,247.1,344.9
			z M247.1,494.1H109v-79.9c0-43.4,28.5-81.6,69.8-94c3.6,2.2,7.4,4.2,11.4,5.8l-11.8,68.2c-0.6,3.4,0.8,6.8,3.6,8.8
			c1.6,1.1,3.4,1.7,5.2,1.7c1.4,0,2.9-0.4,4.2-1.1l23-12.4l32.8,32.8V494.1z M230.7,382.5l25.3-13.6l25.3,13.6L256,407.8
			L230.7,382.5z M403,494.1H264.9v-70.1l32.8-32.8l23,12.4c1.3,0.7,2.8,1.1,4.2,1.1c1.8,0,3.7-0.6,5.2-1.7c2.8-2,4.2-5.4,3.6-8.8
			l-11.8-68.2c3.9-1.7,7.7-3.6,11.4-5.8c41.3,12.4,69.8,50.6,69.8,94L403,494.1L403,494.1z"/>
	</g>
</g>
<g>
	<g>
		<path class="st0" d="M362.3,425.8h-45.2c-4.9,0-8.9,4-8.9,8.9s4,8.9,8.9,8.9h45.2c4.9,0,8.9-4,8.9-8.9S367.2,425.8,362.3,425.8z"
			/>
	</g>
</g>
</svg>
